<mxfile host="app.diagrams.net" modified="2023-12-03T23:04:58.489Z" agent="Mozilla/5.0 (Windows NT 10.0; Win64; x64) AppleWebKit/537.36 (KHTML, like Gecko) Chrome/119.0.0.0 Safari/537.36" etag="gRMh0WwJt4En8TOyjeI5" version="22.1.5" type="gitlab">
  <diagram name="Page-1" id="3IYmXb0VKKJfQ0NsXWT5">
    <mxGraphModel dx="1313" dy="668" grid="1" gridSize="10" guides="1" tooltips="1" connect="1" arrows="1" fold="1" page="1" pageScale="1" pageWidth="827" pageHeight="1169" math="0" shadow="0">
      <root>
        <mxCell id="0" />
        <mxCell id="1" parent="0" />
        <mxCell id="nUGxLOJDifpx9dQ1bJr7-1" value="" style="rounded=1;whiteSpace=wrap;html=1;" vertex="1" parent="1">
          <mxGeometry x="80" y="310" width="690" height="390" as="geometry" />
        </mxCell>
        <mxCell id="nUGxLOJDifpx9dQ1bJr7-2" value="" style="endArrow=none;html=1;rounded=0;entryX=0.465;entryY=-0.01;entryDx=0;entryDy=0;exitX=0.465;exitY=1.006;exitDx=0;exitDy=0;exitPerimeter=0;entryPerimeter=0;" edge="1" parent="1" source="nUGxLOJDifpx9dQ1bJr7-1" target="nUGxLOJDifpx9dQ1bJr7-1">
          <mxGeometry width="50" height="50" relative="1" as="geometry">
            <mxPoint x="390" y="580" as="sourcePoint" />
            <mxPoint x="440" y="530" as="targetPoint" />
            <Array as="points">
              <mxPoint x="400" y="480" />
            </Array>
          </mxGeometry>
        </mxCell>
        <mxCell id="nUGxLOJDifpx9dQ1bJr7-3" value="&lt;h4 style=&quot;border-color: var(--border-color);&quot;&gt;&lt;font face=&quot;Poppins&quot;&gt;&lt;span style=&quot;font-size: 30px;&quot;&gt;Login Image&lt;/span&gt;&lt;/font&gt;&lt;/h4&gt;" style="text;html=1;strokeColor=none;fillColor=none;align=center;verticalAlign=middle;whiteSpace=wrap;rounded=0;" vertex="1" parent="1">
          <mxGeometry x="70" y="490" width="350" height="30" as="geometry" />
        </mxCell>
        <mxCell id="nUGxLOJDifpx9dQ1bJr7-4" value="&lt;span style=&quot;color: rgb(0, 0, 0); font-family: Poppins; font-size: 18px; font-style: normal; font-variant-ligatures: normal; font-variant-caps: normal; letter-spacing: normal; orphans: 2; text-align: center; text-indent: 0px; text-transform: none; widows: 2; word-spacing: 0px; -webkit-text-stroke-width: 0px; background-color: rgb(251, 251, 251); text-decoration-thickness: initial; text-decoration-style: initial; text-decoration-color: initial; float: none; display: inline !important;&quot;&gt;WELCOME BACK TO CARVALUIFY !&lt;/span&gt;" style="text;whiteSpace=wrap;html=1;fontSize=18;fontStyle=1" vertex="1" parent="1">
          <mxGeometry x="440" y="370" width="310" height="120" as="geometry" />
        </mxCell>
        <mxCell id="nUGxLOJDifpx9dQ1bJr7-5" value="&lt;div style=&quot;text-align: center;&quot;&gt;&lt;span style=&quot;background-color: initial;&quot;&gt;&lt;font face=&quot;Poppins&quot;&gt;Username&lt;/font&gt;&lt;/span&gt;&lt;/div&gt;" style="text;whiteSpace=wrap;html=1;fontSize=18;fontStyle=1" vertex="1" parent="1">
          <mxGeometry x="440" y="420" width="310" height="50" as="geometry" />
        </mxCell>
        <mxCell id="nUGxLOJDifpx9dQ1bJr7-6" value="" style="rounded=1;whiteSpace=wrap;html=1;" vertex="1" parent="1">
          <mxGeometry x="440" y="460" width="300" height="40" as="geometry" />
        </mxCell>
        <mxCell id="nUGxLOJDifpx9dQ1bJr7-7" value="&lt;div style=&quot;text-align: center; font-size: 14px;&quot;&gt;&lt;span style=&quot;background-color: initial; font-size: 14px;&quot;&gt;&lt;font face=&quot;Poppins&quot; style=&quot;font-size: 14px;&quot;&gt;Enter Username&lt;/font&gt;&lt;/span&gt;&lt;/div&gt;" style="text;whiteSpace=wrap;html=1;fontSize=14;fontStyle=0" vertex="1" parent="1">
          <mxGeometry x="450" y="470" width="310" height="50" as="geometry" />
        </mxCell>
        <mxCell id="nUGxLOJDifpx9dQ1bJr7-8" value="&lt;div style=&quot;text-align: center;&quot;&gt;&lt;span style=&quot;background-color: initial;&quot;&gt;&lt;font face=&quot;Poppins&quot;&gt;Password&lt;/font&gt;&lt;/span&gt;&lt;/div&gt;" style="text;whiteSpace=wrap;html=1;fontSize=18;fontStyle=1" vertex="1" parent="1">
          <mxGeometry x="440" y="510" width="310" height="50" as="geometry" />
        </mxCell>
        <mxCell id="nUGxLOJDifpx9dQ1bJr7-9" value="" style="rounded=1;whiteSpace=wrap;html=1;" vertex="1" parent="1">
          <mxGeometry x="440" y="550" width="300" height="40" as="geometry" />
        </mxCell>
        <mxCell id="nUGxLOJDifpx9dQ1bJr7-10" value="&lt;div style=&quot;text-align: center; font-size: 14px;&quot;&gt;&lt;span style=&quot;background-color: initial; font-size: 14px;&quot;&gt;&lt;font face=&quot;Poppins&quot; style=&quot;font-size: 14px;&quot;&gt;Enter Password&lt;/font&gt;&lt;/span&gt;&lt;/div&gt;" style="text;whiteSpace=wrap;html=1;fontSize=14;fontStyle=0" vertex="1" parent="1">
          <mxGeometry x="450" y="560" width="310" height="50" as="geometry" />
        </mxCell>
        <mxCell id="nUGxLOJDifpx9dQ1bJr7-12" style="edgeStyle=orthogonalEdgeStyle;rounded=0;orthogonalLoop=1;jettySize=auto;html=1;exitX=0.5;exitY=1;exitDx=0;exitDy=0;" edge="1" parent="1">
          <mxGeometry relative="1" as="geometry">
            <mxPoint x="495.50000000000045" y="675" as="sourcePoint" />
            <mxPoint x="495.50000000000045" y="675" as="targetPoint" />
          </mxGeometry>
        </mxCell>
        <mxCell id="nUGxLOJDifpx9dQ1bJr7-13" value="" style="rounded=1;whiteSpace=wrap;html=1;labelBackgroundColor=#FF334E;fillColor=#030303;strokeColor=#FFFFFF;" vertex="1" parent="1">
          <mxGeometry x="440" y="620" width="300" height="45" as="geometry" />
        </mxCell>
        <mxCell id="nUGxLOJDifpx9dQ1bJr7-14" value="LOGIN" style="text;html=1;strokeColor=none;fillColor=none;align=center;verticalAlign=middle;whiteSpace=wrap;rounded=0;fontFamily=Poppins;fontSource=https%3A%2F%2Ffonts.googleapis.com%2Fcss%3Ffamily%3DPoppins;fontSize=18;fontColor=#FFFFFF;fontStyle=0" vertex="1" parent="1">
          <mxGeometry x="414" y="607.5" width="340" height="70" as="geometry" />
        </mxCell>
      </root>
    </mxGraphModel>
  </diagram>
</mxfile>
